<svg width="1200" height="420" viewBox="0 0 1200 420" fill="none" xmlns="http://www.w3.org/2000/svg" role="img" aria-labelledby="title desc">
  <title id="title">SelvaLabs Tech Profile Hero</title>
  <desc id="desc">Tech banner for SelvaLabs focused on full stack engineering, local AI systems, local LLMs, RAG, agent systems, APIs, Docker and infrastructure.</desc>

  <defs>
    <linearGradient id="bg" x1="0" y1="0" x2="1200" y2="420" gradientUnits="userSpaceOnUse">
      <stop offset="0" stop-color="#050816"/>
      <stop offset="0.48" stop-color="#071A2F"/>
      <stop offset="1" stop-color="#120A2A"/>
    </linearGradient>
    <linearGradient id="line" x1="94" y1="72" x2="1088" y2="344" gradientUnits="userSpaceOnUse">
      <stop offset="0" stop-color="#00F5D4"/>
      <stop offset="0.42" stop-color="#38BDF8"/>
      <stop offset="1" stop-color="#A78BFA"/>
    </linearGradient>
    <linearGradient id="card" x1="650" y1="74" x2="1090" y2="330" gradientUnits="userSpaceOnUse">
      <stop offset="0" stop-color="#0F2742"/>
      <stop offset="1" stop-color="#160D35"/>
    </linearGradient>
    <filter id="softGlow" x="-40%" y="-40%" width="180%" height="180%">
      <feGaussianBlur stdDeviation="8" result="blur"/>
      <feColorMatrix in="blur" type="matrix" values="0 0 0 0 0 0 0 0 0 0.9 0 0 0 0 1 0 0 0 0.55 0" result="colored"/>
      <feMerge>
        <feMergeNode in="colored"/>
        <feMergeNode in="SourceGraphic"/>
      </feMerge>
    </filter>
    <pattern id="grid" width="28" height="28" patternUnits="userSpaceOnUse">
      <path d="M28 0H0V28" stroke="#FFFFFF" stroke-opacity="0.055" stroke-width="1"/>
    </pattern>
    <pattern id="dots" width="18" height="18" patternUnits="userSpaceOnUse">
      <circle cx="2" cy="2" r="1.1" fill="#FFFFFF" fill-opacity="0.10"/>
    </pattern>
  </defs>

  <rect width="1200" height="420" rx="30" fill="url(#bg)"/>
  <rect width="1200" height="420" rx="30" fill="url(#grid)"/>
  <rect width="1200" height="420" rx="30" fill="url(#dots)" opacity="0.5"/>

  <circle cx="985" cy="88" r="180" fill="#38BDF8" fill-opacity="0.08"/>
  <circle cx="210" cy="354" r="210" fill="#00F5D4" fill-opacity="0.06"/>
  <circle cx="1040" cy="360" r="160" fill="#A78BFA" fill-opacity="0.07"/>

  <g opacity="0.95">
    <text x="74" y="110" fill="#EAF6FF" font-family="Inter, Segoe UI, Arial, sans-serif" font-size="24" font-weight="800" letter-spacing="2.4">SELVALABS</text>
    <text x="74" y="176" fill="#FFFFFF" font-family="Inter, Segoe UI, Arial, sans-serif" font-size="58" font-weight="850" letter-spacing="-2.1">Carlos Selva</text>
    <text x="74" y="222" fill="url(#line)" font-family="Inter, Segoe UI, Arial, sans-serif" font-size="31" font-weight="780">Full Stack · AI Product Engineering</text>
    <text x="74" y="266" fill="#D8E7F5" fill-opacity="0.92" font-family="Inter, Segoe UI, Arial, sans-serif" font-size="22" font-weight="520">Local LLMs · RAG · Agent Systems · APIs · Docker · VPS</text>
  </g>

  <g font-family="Inter, Segoe UI, Arial, sans-serif" font-size="14" font-weight="800">
    <rect x="74" y="305" width="96" height="34" rx="17" fill="#071A2F" stroke="#00F5D4" stroke-opacity="0.45"/>
    <text x="100" y="328" fill="#FFFFFF">Python</text>
    <rect x="182" y="305" width="94" height="34" rx="17" fill="#071A2F" stroke="#38BDF8" stroke-opacity="0.45"/>
    <text x="207" y="328" fill="#FFFFFF">Node.js</text>
    <rect x="288" y="305" width="86" height="34" rx="17" fill="#071A2F" stroke="#38BDF8" stroke-opacity="0.45"/>
    <text x="311" y="328" fill="#FFFFFF">React</text>
    <rect x="386" y="305" width="120" height="34" rx="17" fill="#071A2F" stroke="#A78BFA" stroke-opacity="0.45"/>
    <text x="407" y="328" fill="#FFFFFF">TypeScript</text>
    <rect x="518" y="305" width="92" height="34" rx="17" fill="#071A2F" stroke="#00F5D4" stroke-opacity="0.45"/>
    <text x="541" y="328" fill="#FFFFFF">FastAPI</text>
  </g>

  <g transform="translate(650 62)">
    <rect x="0" y="0" width="466" height="296" rx="24" fill="url(#card)" stroke="#FFFFFF" stroke-opacity="0.13"/>
    <rect x="0" y="0" width="466" height="44" rx="24" fill="#FFFFFF" fill-opacity="0.055"/>
    <circle cx="28" cy="22" r="6" fill="#FF5F57"/>
    <circle cx="50" cy="22" r="6" fill="#FFBD2E"/>
    <circle cx="72" cy="22" r="6" fill="#28C840"/>

    <g font-family="JetBrains Mono, Consolas, monospace" font-size="15" font-weight="700">
      <text x="26" y="78" fill="#00F5D4">$</text>
      <text x="48" y="78" fill="#D7F3FF">build local-ai-system</text>
      <text x="26" y="108" fill="#8BE9FD">api</text>
      <text x="82" y="108" fill="#FFFFFF">FastAPI + Pydantic</text>
      <text x="26" y="138" fill="#8BE9FD">data</text>
      <text x="82" y="138" fill="#FFFFFF">PostgreSQL · SQLite</text>
      <text x="26" y="168" fill="#8BE9FD">orm</text>
      <text x="82" y="168" fill="#FFFFFF">SQLAlchemy · Alembic</text>
      <text x="26" y="198" fill="#8BE9FD">ai</text>
      <text x="82" y="198" fill="#FFFFFF">Ollama · Gemma · RAG</text>
      <text x="26" y="228" fill="#8BE9FD">ops</text>
      <text x="82" y="228" fill="#FFFFFF">Docker · Linux · VPS</text>
    </g>

    <g filter="url(#softGlow)">
      <circle cx="370" cy="94" r="10" fill="#00F5D4"/>
      <circle cx="410" cy="139" r="10" fill="#38BDF8"/>
      <circle cx="352" cy="188" r="10" fill="#A78BFA"/>
      <path d="M370 94L410 139L352 188L370 94" stroke="url(#line)" stroke-width="2" stroke-opacity="0.9"/>
      <circle cx="370" cy="94" r="40" stroke="#00F5D4" stroke-opacity="0.17"/>
      <circle cx="410" cy="139" r="40" stroke="#38BDF8" stroke-opacity="0.17"/>
      <circle cx="352" cy="188" r="40" stroke="#A78BFA" stroke-opacity="0.17"/>
    </g>
  </g>

  <g opacity="0.75" stroke="url(#line)" stroke-width="2">
    <path d="M602 126H650"/>
    <path d="M602 210H650"/>
    <path d="M602 322H650"/>
    <circle cx="602" cy="126" r="5" fill="#00F5D4" stroke="none"/>
    <circle cx="602" cy="210" r="5" fill="#38BDF8" stroke="none"/>
    <circle cx="602" cy="322" r="5" fill="#A78BFA" stroke="none"/>
  </g>

  <g opacity="0.20" font-family="JetBrains Mono, Consolas, monospace" font-size="13" fill="#FFFFFF">
    <text x="52" y="386">{ local-first: true, source_attribution: true, agent_ready: true }</text>
    <text x="786" y="386">pipeline: docs → chunks → embeddings → retrieval → answer</text>
  </g>
</svg>
